<mxfile host="Electron" agent="Mozilla/5.0 (Windows NT 10.0; Win64; x64) AppleWebKit/537.36 (KHTML, like Gecko) draw.io/27.0.9 Chrome/134.0.6998.205 Electron/35.4.0 Safari/537.36" version="27.0.9">
  <diagram name="Page-1" id="W1Xp7YPVTbw48Z8Vba4C">
    <mxGraphModel dx="1478" dy="837" grid="1" gridSize="10" guides="1" tooltips="1" connect="1" arrows="1" fold="1" page="1" pageScale="1" pageWidth="980" pageHeight="690" background="#7EA6E0" math="0" shadow="0">
      <root>
        <mxCell id="0" />
        <mxCell id="1" parent="0" />
        <mxCell id="22mNnDZsAfM0wJiG4Lv1-1" value="Local transactions.csv" style="rounded=1;whiteSpace=wrap;html=1;" vertex="1" parent="1">
          <mxGeometry x="200" y="90" width="120" height="60" as="geometry" />
        </mxCell>
        <mxCell id="22mNnDZsAfM0wJiG4Lv1-2" value="" style="endArrow=classic;html=1;rounded=0;exitX=1;exitY=0.5;exitDx=0;exitDy=0;" edge="1" parent="1" source="22mNnDZsAfM0wJiG4Lv1-1">
          <mxGeometry width="50" height="50" relative="1" as="geometry">
            <mxPoint x="360" y="119.17" as="sourcePoint" />
            <mxPoint x="450" y="119.17" as="targetPoint" />
          </mxGeometry>
        </mxCell>
        <mxCell id="22mNnDZsAfM0wJiG4Lv1-3" value="Mechanism_X" style="rounded=1;whiteSpace=wrap;html=1;" vertex="1" parent="1">
          <mxGeometry x="450" y="90" width="120" height="60" as="geometry" />
        </mxCell>
        <mxCell id="22mNnDZsAfM0wJiG4Lv1-6" value="" style="endArrow=classic;html=1;rounded=0;" edge="1" parent="1">
          <mxGeometry relative="1" as="geometry">
            <mxPoint x="570" y="119.16999999999999" as="sourcePoint" />
            <mxPoint x="720" y="119.65" as="targetPoint" />
          </mxGeometry>
        </mxCell>
        <mxCell id="22mNnDZsAfM0wJiG4Lv1-7" value="Label" style="edgeLabel;resizable=0;html=1;;align=center;verticalAlign=middle;" connectable="0" vertex="1" parent="22mNnDZsAfM0wJiG4Lv1-6">
          <mxGeometry relative="1" as="geometry" />
        </mxCell>
        <mxCell id="22mNnDZsAfM0wJiG4Lv1-8" value="(chunks every 1s)" style="edgeLabel;html=1;align=center;verticalAlign=middle;resizable=0;points=[];" vertex="1" connectable="0" parent="22mNnDZsAfM0wJiG4Lv1-6">
          <mxGeometry x="0.0377" y="-1" relative="1" as="geometry">
            <mxPoint as="offset" />
          </mxGeometry>
        </mxCell>
        <mxCell id="22mNnDZsAfM0wJiG4Lv1-9" value="S3:transaction-chunks Bucket&lt;div&gt;&lt;br&gt;&lt;/div&gt;" style="rounded=1;whiteSpace=wrap;html=1;" vertex="1" parent="1">
          <mxGeometry x="720" y="90" width="120" height="60" as="geometry" />
        </mxCell>
        <mxCell id="22mNnDZsAfM0wJiG4Lv1-10" value="" style="endArrow=classic;html=1;rounded=0;exitX=0.426;exitY=1.039;exitDx=0;exitDy=0;exitPerimeter=0;dashed=1;" edge="1" parent="1">
          <mxGeometry width="50" height="50" relative="1" as="geometry">
            <mxPoint x="779.29" y="147.34000000000003" as="sourcePoint" />
            <mxPoint x="779.17" y="255.00000000000003" as="targetPoint" />
          </mxGeometry>
        </mxCell>
        <mxCell id="22mNnDZsAfM0wJiG4Lv1-11" value="(PySpark readStream&lt;span style=&quot;background-color: light-dark(#ffffff, var(--ge-dark-color, #121212)); color: light-dark(rgb(0, 0, 0), rgb(255, 255, 255));&quot;&gt;)&lt;/span&gt;" style="edgeLabel;html=1;align=center;verticalAlign=middle;resizable=0;points=[];" vertex="1" connectable="0" parent="22mNnDZsAfM0wJiG4Lv1-10">
          <mxGeometry x="0.0941" y="-3" relative="1" as="geometry">
            <mxPoint x="3" y="-8" as="offset" />
          </mxGeometry>
        </mxCell>
        <mxCell id="22mNnDZsAfM0wJiG4Lv1-12" value="&lt;span style=&quot;color: rgb(26, 28, 30); font-family: &amp;quot;Google Sans Text&amp;quot;, &amp;quot;Helvetica Neue&amp;quot;, sans-serif; font-size: 14px; text-align: start; background-color: rgb(255, 255, 255);&quot;&gt;CustomerImportance.csv (DBFS/S3)&lt;/span&gt;" style="rounded=1;whiteSpace=wrap;html=1;" vertex="1" parent="1">
          <mxGeometry x="695" y="255" width="170" height="70" as="geometry" />
        </mxCell>
        <mxCell id="22mNnDZsAfM0wJiG4Lv1-13" value="" style="endArrow=classic;html=1;rounded=0;" edge="1" parent="1">
          <mxGeometry width="50" height="50" relative="1" as="geometry">
            <mxPoint x="695" y="289.17" as="sourcePoint" />
            <mxPoint x="600" y="290" as="targetPoint" />
          </mxGeometry>
        </mxCell>
        <mxCell id="22mNnDZsAfM0wJiG4Lv1-14" value="&lt;div&gt;&lt;br&gt;&lt;/div&gt;Mechanism_Y&lt;div&gt;&lt;br&gt;&lt;/div&gt;" style="rounded=1;whiteSpace=wrap;html=1;" vertex="1" parent="1">
          <mxGeometry x="480" y="265" width="120" height="60" as="geometry" />
        </mxCell>
        <mxCell id="22mNnDZsAfM0wJiG4Lv1-19" value="" style="endArrow=classic;startArrow=classic;html=1;rounded=0;entryX=0;entryY=0.5;entryDx=0;entryDy=0;exitX=1;exitY=0.5;exitDx=0;exitDy=0;" edge="1" parent="1" source="22mNnDZsAfM0wJiG4Lv1-21" target="22mNnDZsAfM0wJiG4Lv1-14">
          <mxGeometry width="50" height="50" relative="1" as="geometry">
            <mxPoint x="140" y="295" as="sourcePoint" />
            <mxPoint x="210" y="280" as="targetPoint" />
          </mxGeometry>
        </mxCell>
        <mxCell id="22mNnDZsAfM0wJiG4Lv1-20" value="(UPSERT)" style="edgeLabel;html=1;align=center;verticalAlign=middle;resizable=0;points=[];" vertex="1" connectable="0" parent="22mNnDZsAfM0wJiG4Lv1-19">
          <mxGeometry x="-0.0663" y="1" relative="1" as="geometry">
            <mxPoint as="offset" />
          </mxGeometry>
        </mxCell>
        <mxCell id="22mNnDZsAfM0wJiG4Lv1-21" value="AWS RDS" style="rounded=1;whiteSpace=wrap;html=1;" vertex="1" parent="1">
          <mxGeometry x="200" y="265" width="120" height="60" as="geometry" />
        </mxCell>
        <mxCell id="22mNnDZsAfM0wJiG4Lv1-23" value="" style="endArrow=classic;html=1;rounded=0;exitX=0.426;exitY=1.039;exitDx=0;exitDy=0;exitPerimeter=0;dashed=1;" edge="1" parent="1">
          <mxGeometry width="50" height="50" relative="1" as="geometry">
            <mxPoint x="259.29" y="325" as="sourcePoint" />
            <mxPoint x="259.17" y="432.65999999999997" as="targetPoint" />
          </mxGeometry>
        </mxCell>
        <mxCell id="22mNnDZsAfM0wJiG4Lv1-24" value="(Detected Patterns, 50/file&lt;span style=&quot;background-color: light-dark(#ffffff, var(--ge-dark-color, #121212)); color: light-dark(rgb(0, 0, 0), rgb(255, 255, 255));&quot;&gt;)&lt;/span&gt;" style="edgeLabel;html=1;align=center;verticalAlign=middle;resizable=0;points=[];" vertex="1" connectable="0" parent="22mNnDZsAfM0wJiG4Lv1-23">
          <mxGeometry x="0.0941" y="-3" relative="1" as="geometry">
            <mxPoint x="14" y="-8" as="offset" />
          </mxGeometry>
        </mxCell>
        <mxCell id="22mNnDZsAfM0wJiG4Lv1-25" value="&lt;div&gt;&lt;span style=&quot;color: rgb(26, 28, 30); font-family: &amp;quot;Google Sans Text&amp;quot;, &amp;quot;Helvetica Neue&amp;quot;, sans-serif; font-size: 14px; text-align: start; background-color: rgb(255, 255, 255);&quot;&gt;S3: detection-outputs&lt;/span&gt;&lt;/div&gt;&lt;div&gt;&lt;span style=&quot;color: rgb(26, 28, 30); font-family: &amp;quot;Google Sans Text&amp;quot;, &amp;quot;Helvetica Neue&amp;quot;, sans-serif; font-size: 14px; text-align: start; background-color: rgb(255, 255, 255);&quot;&gt;Bucket&lt;/span&gt;&lt;/div&gt;" style="rounded=1;whiteSpace=wrap;html=1;" vertex="1" parent="1">
          <mxGeometry x="200" y="440" width="120" height="60" as="geometry" />
        </mxCell>
      </root>
    </mxGraphModel>
  </diagram>
</mxfile>
